<svg width="403" height="69" viewBox="0 0 403 69" fill="none" xmlns="http://www.w3.org/2000/svg">
<rect x="321.039" y="8.35352" width="81.9613" height="37.1824" rx="2.95557" fill="black"/>
<path d="M392.556 13.1381L392.037 16.0745C391.867 17.0305 391.14 17.7719 390.225 17.9475L387.383 18.4841C386.883 18.5816 386.883 19.323 387.383 19.4108L390.225 19.9474C391.15 20.123 391.867 20.8741 392.037 21.8204L392.556 24.7567C392.651 25.2738 393.368 25.2738 393.453 24.7567L393.972 21.8204C394.142 20.8644 394.869 20.123 395.785 19.9474L398.627 19.4108C399.127 19.3133 399.127 18.5719 398.627 18.4841L395.785 17.9475C394.86 17.7719 394.142 17.0208 393.972 16.0745L393.453 13.1381C393.359 12.6211 392.641 12.6211 392.556 13.1381Z" fill="white"/>
<path d="M381.46 40.6668C379.521 40.6668 377.84 40.2339 376.417 39.3681C374.995 38.5024 373.892 37.2912 373.107 35.7346C372.331 34.1779 371.943 32.359 371.943 30.2777C371.943 28.1963 372.331 26.373 373.107 24.8076C373.892 23.2423 374.995 22.0267 376.417 21.1609C377.84 20.2952 379.521 19.8623 381.46 19.8623C383.4 19.8623 385.081 20.2952 386.503 21.1609C387.926 22.0267 389.025 23.2423 389.801 24.8076C390.585 26.373 390.977 28.1963 390.977 30.2777C390.977 32.359 390.585 34.1779 389.801 35.7346C389.025 37.2912 387.926 38.5024 386.503 39.3681C385.081 40.2339 383.4 40.6668 381.46 40.6668ZM381.486 36.8627C382.538 36.8627 383.417 36.5697 384.124 35.9838C384.831 35.3891 385.357 34.5933 385.702 33.5964C386.055 32.5995 386.232 31.4888 386.232 30.2645C386.232 29.0315 386.055 27.9165 385.702 26.9196C385.357 25.9139 384.831 25.1137 384.124 24.519C383.417 23.9244 382.538 23.627 381.486 23.627C380.409 23.627 379.512 23.9244 378.797 24.519C378.09 25.1137 377.56 25.9139 377.206 26.9196C376.861 27.9165 376.689 29.0315 376.689 30.2645C376.689 31.4888 376.861 32.5995 377.206 33.5964C377.56 34.5933 378.09 35.3891 378.797 35.9838C379.512 36.5697 380.409 36.8627 381.486 36.8627Z" fill="white"/>
<path d="M364.508 31.9516V20.3051H369.287V40.4051H364.653V36.8327H364.442C363.984 37.9581 363.231 38.8784 362.184 39.5938C361.145 40.3092 359.864 40.6669 358.342 40.6669C357.012 40.6669 355.837 40.3746 354.816 39.7901C353.804 39.1969 353.012 38.3376 352.44 37.2122C351.867 36.078 351.581 34.7084 351.581 33.1032V20.3051H356.361V32.3703C356.361 33.644 356.713 34.656 357.417 35.4063C358.122 36.1566 359.046 36.5317 360.19 36.5317C360.894 36.5317 361.576 36.3616 362.237 36.0213C362.897 35.6811 363.438 35.1751 363.861 34.5034C364.292 33.8229 364.508 32.9723 364.508 31.9516Z" fill="white"/>
<path d="M335.893 40.2243H326.793V13.6654H336.076C338.743 13.6654 341.033 14.1971 342.947 15.2605C344.87 16.3152 346.347 17.8325 347.379 19.8123C348.41 21.7922 348.926 24.161 348.926 26.9189C348.926 29.6855 348.406 32.063 347.366 34.0514C346.334 36.0399 344.844 37.5658 342.895 38.6292C340.954 39.6926 338.62 40.2243 335.893 40.2243ZM331.658 36.0615H335.657C337.528 36.0615 339.088 35.7243 340.338 35.05C341.588 34.367 342.527 33.3511 343.157 32.0025C343.786 30.6451 344.101 28.9506 344.101 26.9189C344.101 24.8872 343.786 23.2014 343.157 21.8613C342.527 20.5126 341.596 19.5054 340.364 18.8397C339.14 18.1654 337.619 17.8282 335.801 17.8282H331.658V36.0615Z" fill="white"/>
<path d="M126.373 26.2722H136.703C134.979 15.2897 125.475 7.64014 113.096 7.64014C98.45 7.64014 87.4675 18.4049 87.4675 36.4384C87.4675 54.4719 97.9602 65.1278 113.395 65.1278C127.248 65.1278 137.165 56.2222 137.165 41.7936V35.0735H114.461V42.9952H127.357C127.194 50.9713 121.866 56.0272 113.45 56.0272C104.077 56.0272 97.6564 49.0079 97.6564 36.3296C97.6564 23.6513 104.186 16.7408 113.228 16.7408C119.975 16.7408 124.564 20.3456 126.369 26.2767L126.373 26.2722Z" fill="black"/>
<path d="M143.994 64.3569H153.884V22.3907H143.994V64.3569ZM148.968 15.7477C152.111 15.7477 154.677 13.3444 154.677 10.3925C154.677 7.44059 152.111 5.01013 148.968 5.01013C145.826 5.01013 143.232 7.41339 143.232 10.3925C143.232 13.3716 145.799 15.7477 148.968 15.7477Z" fill="black"/>
<path d="M183.498 22.391H175.218V12.3381H165.328V22.391H159.37V30.0406H165.328V53.3749C165.274 61.2693 171.01 65.1508 178.442 64.9332C181.258 64.8515 183.194 64.3029 184.259 63.9492L182.595 56.2179C182.047 56.354 180.927 56.5988 179.698 56.5988C177.213 56.5988 175.218 55.7237 175.218 51.7379V30.0451H183.498V22.3955V22.391Z" fill="black"/>
<path d="M191.152 64.3576H225.931V55.8601H201.287V8.40259H191.152V64.3576Z" fill="black"/>
<path d="M244.876 65.2054C251.46 65.2054 255.396 62.1174 257.196 58.5942H257.523V64.3574H267.031V36.2711C267.031 25.1799 257.99 21.847 249.982 21.847C241.158 21.847 234.383 25.7829 232.193 33.4325L241.43 34.743C242.414 31.8727 245.198 29.415 250.036 29.415C254.875 29.415 257.142 31.7639 257.142 35.8902V36.0535C257.142 38.8966 254.163 39.0326 246.758 39.8216C238.614 40.6967 230.828 43.1272 230.828 52.5815C230.828 60.8342 236.868 65.2054 244.872 65.2054H244.876ZM248.127 57.9367C244.001 57.9367 241.049 56.0504 241.049 52.4183C241.049 48.7862 244.355 47.0359 248.78 46.4056C251.374 46.0519 256.566 45.3944 257.849 44.356V49.3031C257.849 53.9736 254.077 57.9367 248.123 57.9367H248.127Z" fill="black"/>
<path d="M274.328 64.3576H284.054V57.7464H284.63C286.19 60.8071 289.441 65.0967 296.651 65.0967C306.541 65.0967 313.945 57.2567 313.945 43.4312C313.945 29.6056 306.323 21.8472 296.624 21.8472C289.219 21.8472 286.131 26.3 284.63 29.3336H284.222V8.40259H274.332V64.3576H274.328ZM284.027 43.3767C284.027 35.2329 287.523 29.9639 293.889 29.9639C300.256 29.9639 303.861 35.5639 303.861 43.3767C303.861 51.1896 300.419 56.9846 293.889 56.9846C287.36 56.9846 284.027 51.5206 284.027 43.3767Z" fill="black"/>
<path d="M69.4394 27.5693L69.3442 27.3154L59.7311 2.2399C59.5407 1.75018 59.1915 1.33301 58.7426 1.04734C58.2937 0.761667 57.7677 0.625634 57.2372 0.652841C56.7067 0.680047 56.1988 0.875028 55.7816 1.20604C55.369 1.54159 55.0697 1.9905 54.9337 2.49836L48.4449 22.3638H22.1814L15.6926 2.49836C15.552 1.9905 15.2528 1.53706 14.8447 1.20604C14.4275 0.875028 13.9196 0.680047 13.3891 0.648306C12.854 0.6211 12.3326 0.757133 11.8837 1.0428C11.4348 1.32847 11.0901 1.74111 10.8952 2.23536L1.28215 27.3199L1.18692 27.5693C-1.66071 35.0013 0.765221 43.399 7.10891 48.1965C7.12251 48.2056 7.13158 48.2146 7.14518 48.2237L7.23134 48.2872L21.8731 59.2469L29.1146 64.7291L33.522 68.0619C34.5831 68.8645 36.0523 68.8645 37.1133 68.0619L41.5208 64.7291L48.7623 59.2469L63.4902 48.2192C63.4902 48.2192 63.5174 48.201 63.531 48.1874C69.8702 43.39 72.2961 34.9922 69.4484 27.5648L69.4394 27.5693Z" fill="#E24329"/>
<path d="M69.4385 27.5695L69.3433 27.3156C64.573 28.295 60.1837 30.3128 56.4201 33.1287C56.3611 33.174 44.9933 41.7714 35.3123 49.0899C42.4993 54.5267 48.7569 59.2471 48.7569 59.2471L63.4848 48.2193C63.4848 48.2193 63.512 48.2012 63.5256 48.1876C69.8647 43.3901 72.2906 34.9924 69.443 27.5649L69.4385 27.5695Z" fill="#FC6D26"/>
<path d="M21.8678 59.2481L29.1093 64.7302L33.5168 68.0631C34.5778 68.8656 36.047 68.8656 37.1081 68.0631L41.5155 64.7302L48.7571 59.2481C48.7571 59.2481 42.4995 54.5232 35.3124 49.0909C28.1253 54.5277 21.8678 59.2481 21.8678 59.2481Z" fill="#FCA121"/>
<path d="M14.1998 33.13C10.4408 30.3187 6.05142 28.2963 1.27665 27.3214L1.18143 27.5708C-1.6662 35.0028 0.759728 43.4005 7.10342 48.198C7.11702 48.2071 7.12609 48.2161 7.13969 48.2252L7.22584 48.2887L21.8676 59.2484C21.8676 59.2484 28.1251 54.5235 35.3122 49.0913C25.6312 41.7727 14.2633 33.1754 14.2044 33.13H14.1998Z" fill="#FC6D26"/>
</svg>
