<svg width="403" height="69" viewBox="250 0 403 155" fill="none" xmlns="http://www.w3.org/2000/svg">
<path d="M276.005 60.8803H296.085C292.735 39.5303 274.245 24.6503 250.185 24.6503C221.715 24.6503 200.355 45.5803 200.355 80.6503C200.355 115.07 220.755 136.43 250.765 136.43C277.705 136.43 296.985 119.11 296.985 91.0603V77.9903H252.845V93.3903H277.955C277.635 108.9 267.275 118.73 250.955 118.73C232.735 118.73 220.255 105.08 220.255 80.4303C220.255 55.9403 232.945 42.3403 250.535 42.3403C263.575 42.3403 272.495 49.3503 276.005 60.8803Z" fill="#171321"/>
<path d="M310.255 134.93H329.485V53.3403H310.255V134.93ZM319.955 40.4203C326.065 40.4203 331.055 35.7403 331.055 30.0103C331.055 24.2803 326.055 19.5403 319.955 19.5403C313.855 19.5403 308.795 24.2203 308.795 30.0103C308.795 35.8003 313.765 40.4203 319.955 40.4203Z" fill="#171321"/>
<path d="M387.065 53.3403H370.956V33.7903H351.745V53.3403H340.166V68.2303H351.745V113.6C351.635 128.95 362.796 136.49 377.236 136.07C381.084 136.003 384.9 135.356 388.555 134.15L385.315 119.15C383.476 119.626 381.585 119.877 379.685 119.9C374.855 119.9 370.976 118.2 370.976 110.44V68.2303H387.065V53.3403Z" fill="#171321"/>
<path d="M401.956 134.93H469.586V118.41H421.656V26.1403H401.956V134.93Z" fill="#171321"/>
<path d="M508.406 136.58C521.206 136.58 528.856 130.58 532.356 123.72H532.956V134.93H551.446V80.3202C551.446 58.7602 533.866 52.3202 518.296 52.3202C501.136 52.3202 487.966 59.9702 483.716 74.8402L501.716 77.3902C503.636 71.8102 509.046 67.0302 518.456 67.0302C527.376 67.0302 532.266 71.6002 532.266 79.6202V79.9402C532.266 85.4602 526.476 85.7302 512.076 87.2702C496.246 88.9702 481.076 93.7002 481.076 112.08C481.096 128.08 492.836 136.58 508.406 136.58ZM514.726 122.45C506.726 122.45 500.966 118.78 500.966 111.72C500.966 104.33 507.396 101.25 515.966 100.03C521.016 99.3402 531.106 98.0302 533.606 96.0302V105.64C533.636 114.75 526.306 122.45 514.726 122.45Z" fill="#171321"/>
<path d="M565.666 134.93H584.576V122.08H585.695C588.695 128.08 595.045 136.37 609.065 136.37C628.295 136.37 642.695 121.12 642.695 94.2402C642.695 67.0402 627.876 52.2402 609.016 52.2402C594.616 52.2402 588.615 60.8903 585.695 66.7903H584.896V26.1403H565.666V134.93ZM584.526 94.1403C584.526 78.3103 591.326 68.0503 603.706 68.0503C616.506 68.0503 623.096 78.9403 623.096 94.1403C623.096 109.34 616.396 120.59 603.706 120.59C591.426 120.59 584.526 109.97 584.526 94.1403Z" fill="#171321"/>
<path d="M157.586 61.1003L157.366 60.5303L135.546 3.61029C135.109 2.4899 134.324 1.53972 133.306 0.900287C132.288 0.249437 131.091 -0.0621574 129.886 0.0102873C128.679 0.0688365 127.523 0.509098 126.583 1.26757C125.643 2.02603 124.968 3.0635 124.656 4.23029L109.956 49.2803H50.3557L35.5957 4.23029C35.2802 3.0705 34.6044 2.04095 33.6657 1.29029C32.7208 0.541719 31.5667 0.105033 30.363 0.0405455C29.1592 -0.0239416 27.9652 0.286953 26.9457 0.930285C25.9303 1.57292 25.1457 2.52207 24.7057 3.64029L2.89569 60.5303L2.67569 61.1003C-0.464567 69.3063 -0.851754 78.3107 1.57251 86.756C3.99677 95.2012 9.10106 102.629 16.1157 107.92L16.1857 107.97L16.3857 108.12L49.6157 133L66.0557 145.44L76.0557 153C77.2279 153.89 78.6591 154.372 80.1307 154.372C81.6023 154.372 83.0335 153.89 84.2057 153L94.2057 145.44L110.646 133L144.066 108L144.156 107.94C151.172 102.646 156.276 95.2136 158.698 86.7646C161.121 78.3156 160.73 69.308 157.586 61.1003Z" fill="#E24329"/>
<path d="M157.585 61.1003L157.365 60.5303C146.736 62.7124 136.721 67.2164 128.035 73.7203L80.1255 109.94L110.645 133L144.065 108L144.156 107.94C151.171 102.646 156.275 95.2136 158.698 86.7646C161.12 78.3156 160.73 69.308 157.585 61.1003Z" fill="#FC6D26"/>
<path d="M49.6157 133L66.0557 145.44L76.0557 153C77.2279 153.89 78.6591 154.372 80.1307 154.372C81.6023 154.372 83.0335 153.89 84.2057 153L94.2057 145.44L110.646 133L80.1257 109.94L49.6157 133Z" fill="#FCA326"/>
<path d="M32.2157 73.7203C23.5348 67.2149 13.5222 62.7106 2.89569 60.5303L2.67569 61.1003C-0.464567 69.3062 -0.851754 78.3107 1.57251 86.756C3.99677 95.2012 9.10106 102.629 16.1157 107.92L16.1857 107.97L16.3857 108.12L49.6157 133L80.1257 109.94L32.2157 73.7203Z" fill="#FC6D26"/>
</svg>
