<svg width="1073" height="343" viewBox="0 0 1073 343" fill="none" xmlns="http://www.w3.org/2000/svg">
<path d="M934.869 342.187L933.723 336.027C933.348 334.021 931.744 332.466 929.724 332.098L923.454 330.972C922.35 330.767 922.35 329.212 923.454 329.028L929.724 327.902C931.765 327.534 933.348 325.958 933.723 323.973L934.869 317.813C935.077 316.729 936.66 316.729 936.848 317.813L937.993 323.973C938.368 325.979 939.972 327.534 941.993 327.902L948.262 329.028C949.366 329.233 949.366 330.788 948.262 330.972L941.993 332.098C939.951 332.466 938.368 334.042 937.993 336.027L936.848 342.187C936.639 343.271 935.056 343.271 934.869 342.187Z" fill="url(#paint0_linear_472_8046)"/>
<path d="M753.914 309.75L753.524 307.854C753.396 307.237 752.851 306.759 752.164 306.645L750.032 306.299C749.656 306.236 749.656 305.758 750.032 305.701L752.164 305.355C752.858 305.241 753.396 304.756 753.524 304.146L753.914 302.25C753.984 301.917 754.523 301.917 754.586 302.25L754.976 304.146C755.104 304.763 755.649 305.241 756.336 305.355L758.468 305.701C758.844 305.764 758.844 306.242 758.468 306.299L756.336 306.645C755.642 306.759 755.104 307.244 754.976 307.854L754.586 309.75C754.516 310.083 753.977 310.083 753.914 309.75Z" fill="url(#paint1_linear_472_8046)"/>
<path d="M854.986 244.067L853.686 237C853.26 234.699 851.44 232.914 849.147 232.492L842.03 231.201C840.777 230.966 840.777 229.181 842.03 228.97L849.147 227.679C851.464 227.256 853.26 225.448 853.686 223.171L854.986 216.104C855.223 214.859 857.02 214.859 857.232 216.104L858.533 223.171C858.958 225.472 860.779 227.256 863.072 227.679L870.189 228.97C871.442 229.205 871.442 230.989 870.189 231.201L863.072 232.492C860.755 232.914 858.958 234.722 858.533 237L857.232 244.067C856.996 245.311 855.199 245.311 854.986 244.067Z" fill="url(#paint2_linear_472_8046)"/>
<path opacity="0.6" d="M1006.5 279.095L1005.18 272.236C1004.75 270.006 1002.94 268.26 1000.61 267.85L993.46 266.588C992.201 266.365 992.201 264.635 993.46 264.412L1000.61 263.15C1002.94 262.739 1004.76 260.994 1005.18 258.764L1006.5 251.905C1006.73 250.698 1008.54 250.698 1008.77 251.905L1010.08 258.764C1010.51 260.994 1012.33 262.74 1014.66 263.15L1021.81 264.412C1023.06 264.635 1023.06 266.365 1021.81 266.588L1014.66 267.85C1012.33 268.261 1010.51 270.006 1010.08 272.236L1008.77 279.095C1008.54 280.302 1006.73 280.302 1006.5 279.095Z" fill="url(#paint3_linear_472_8046)"/>
<path d="M5.65044 123.625L5.12168 120.782C4.94863 119.856 4.20837 119.138 3.27584 118.968L0.382094 118.449C-0.127435 118.354 -0.127435 117.636 0.382094 117.551L3.27584 117.032C4.21799 116.862 4.94863 116.135 5.12168 115.218L5.65044 112.375C5.74657 111.875 6.47722 111.875 6.56374 112.375L7.0925 115.218C7.26555 116.144 8.00581 116.862 8.93834 117.032L11.8321 117.551C12.3416 117.646 12.3416 118.364 11.8321 118.449L8.93834 118.968C7.99619 119.138 7.26555 119.865 7.0925 120.782L6.56374 123.625C6.46761 124.125 5.73696 124.125 5.65044 123.625Z" fill="url(#paint4_linear_472_8046)"/>
<path d="M301.914 75.7497L301.524 73.8544C301.396 73.2373 300.851 72.7588 300.164 72.6454L298.032 72.2991C297.656 72.2361 297.656 71.7576 298.032 71.7009L300.164 71.3546C300.858 71.2412 301.396 70.7564 301.524 70.1456L301.914 68.2503C301.984 67.9166 302.523 67.9166 302.586 68.2503L302.976 70.1456C303.104 70.7627 303.649 71.2412 304.336 71.3546L306.468 71.7009C306.844 71.7639 306.844 72.2424 306.468 72.2991L304.336 72.6454C303.642 72.7588 303.104 73.2436 302.976 73.8544L302.586 75.7497C302.516 76.0834 301.977 76.0834 301.914 75.7497Z" fill="url(#paint5_linear_472_8046)"/>
<path d="M124.057 52.3796L123.193 47.6816C122.91 46.152 121.699 44.9658 120.175 44.6848L115.444 43.8264C114.611 43.6703 114.611 42.4841 115.444 42.3436L120.175 41.4852C121.715 41.2042 122.91 40.0024 123.193 38.4884L124.057 33.7904C124.214 32.9632 125.409 32.9632 125.55 33.7904L126.415 38.4884C126.698 40.018 127.908 41.2042 129.432 41.4852L134.163 42.3436C134.996 42.4997 134.996 43.6859 134.163 43.8264L129.432 44.6848C127.892 44.9658 126.698 46.1676 126.415 47.6816L125.55 52.3796C125.393 53.2068 124.199 53.2068 124.057 52.3796Z" fill="url(#paint6_linear_472_8046)"/>
<defs>
  <linearGradient id="paint0_linear_472_8046" x1="942.701" y1="323.257" x2="929.258" y2="336.94" gradientUnits="userSpaceOnUse">
    <stop stop-color="#DF4329" stop-opacity="0.9"/>
    <stop offset="0.786458" stop-color="#A686F2"/>
  </linearGradient>
  <linearGradient id="paint1_linear_472_8046" x1="756.577" y1="303.925" x2="752.469" y2="308.547" gradientUnits="userSpaceOnUse">
    <stop stop-color="#DF4329" stop-opacity="0.9"/>
    <stop offset="0.786458" stop-color="#A686F2"/>
  </linearGradient>
  <linearGradient id="paint2_linear_472_8046" x1="863.876" y1="222.349" x2="848.451" y2="237.882" gradientUnits="userSpaceOnUse">
    <stop offset="0.33" stop-color="#10AEAE" stop-opacity="0.61"/>
    <stop offset="0.43" stop-color="#1CB3B1" stop-opacity="0.66"/>
    <stop offset="0.63" stop-color="#3BC0B9" stop-opacity="0.79"/>
    <stop offset="0.91" stop-color="#6FD7C6"/>
  </linearGradient>
  <linearGradient id="paint3_linear_472_8046" x1="1015.44" y1="258.012" x2="1000.48" y2="273.608" gradientUnits="userSpaceOnUse">
    <stop offset="0.2358" stop-color="#A686F2"/>
    <stop offset="0.3904" stop-color="#A382F0" stop-opacity="0.9779"/>
    <stop offset="0.5326" stop-color="#9A77EB" stop-opacity="0.9575"/>
    <stop offset="0.67" stop-color="#8A65E3" stop-opacity="0.9379"/>
    <stop offset="0.8036" stop-color="#744AD7" stop-opacity="0.9188"/>
    <stop offset="0.9349" stop-color="#5829C8" stop-opacity="0.9"/>
  </linearGradient>
  <linearGradient id="paint4_linear_472_8046" x1="9.26521" y1="114.888" x2="3.06075" y2="121.203" gradientUnits="userSpaceOnUse">
    <stop stop-color="#DF4329" stop-opacity="0.9"/>
    <stop offset="0.786458" stop-color="#A686F2"/>
  </linearGradient>
  <linearGradient id="paint5_linear_472_8046" x1="304.577" y1="69.9252" x2="300.469" y2="74.5472" gradientUnits="userSpaceOnUse">
    <stop stop-color="#DF4329" stop-opacity="0.9"/>
    <stop offset="0.786458" stop-color="#A686F2"/>
  </linearGradient>
  <linearGradient id="paint6_linear_472_8046" x1="129.967" y1="37.9422" x2="119.712" y2="48.2681" gradientUnits="userSpaceOnUse">
    <stop offset="0.33" stop-color="#10AEAE" stop-opacity="0.61"/>
    <stop offset="0.43" stop-color="#1CB3B1" stop-opacity="0.66"/>
    <stop offset="0.63" stop-color="#3BC0B9" stop-opacity="0.79"/>
    <stop offset="0.91" stop-color="#6FD7C6"/>
  </linearGradient>
</defs>
</svg>
