<svg width="100" height="45" fill="none" xmlns="http://www.w3.org/2000/svg"><path fill-rule="evenodd" clip-rule="evenodd" d="M92.86 20.895h-3.913V4.54h3.707v1.817c.48-1.09 1.648-2.108 3.09-2.18C98.284 4.03 100 5.63 100 9.047v11.848h-4.05V8.538c0-1.454 0-2.69-.893-2.908-.343-.145-.892 0-1.373.364-.55.581-.824 1.38-.824 2.544v12.357zM26.05 5.61c-.892-.873-2.06-1.454-3.433-1.454-1.373 0-2.402.581-3.432 1.453-1.648 1.454-2.678 4.144-2.678 7.124 0 3.053 1.03 5.597 2.678 7.123 1.03.872 2.06 1.454 3.432 1.454 1.374 0 2.54-.582 3.433-1.454 1.717-1.454 2.678-4.07 2.678-7.123 0-2.98-.961-5.67-2.678-7.124zm-1.51 7.123c0 3.053 0 5.524-.48 6.76-.344.581-.687.945-1.511.945-.687 0-1.167-.364-1.373-.945-.55-1.236-.55-3.635-.55-6.76 0-2.908 0-5.525.55-6.76.206-.582.686-.945 1.373-.945.824 0 1.167.363 1.51.945.618 1.235.48 3.78.48 6.76zM66.352 27.155v4.434h-.755c-.48-1.89-1.167-3.49-3.02-3.562-1.168-.145-2.198.582-2.335 1.745-.137 1.09.206 2.108 2.334 3.27 2.678 1.6 4.737 2.327 4.737 5.597 0 3.562-2.883 5.234-5.286 5.234h-4.6v-6.106h.824c.55 3.198 1.51 5.161 3.707 5.234 1.373 0 2.403-.872 2.403-2.472 0-1.599-.961-2.471-3.158-3.852-2.403-1.6-3.913-2.544-3.913-4.797 0-2.908 1.99-4.798 5.08-4.798 1.03.073 3.982.073 3.982.073zM71.446 20.898V9.05c0-3.417-1.717-5.016-4.257-4.87-1.716.145-2.746 1.38-3.227 2.326-.549-1.745-1.853-2.472-3.707-2.326-1.51.145-2.678 1.09-3.09 2.18V4.543h-3.57v16.355h3.914V8.54c0-1.236.137-1.963.824-2.544.48-.364.892-.509 1.304-.364.892.218.892 1.454.892 2.908v12.357h3.914V8.468c0-1.09.206-1.817.824-2.471.48-.364.892-.509 1.304-.364.893.218 1.03 1.454 1.03 2.908v12.357h3.845zM31.412 1.097h4.051V20.94h-4.05V1.097zM49.736 20.94V1.097h-4.05v4.652c-.344-.873-1.168-1.454-2.335-1.454-2.815 0-5.149 3.198-5.286 8.068-.138 3.271.892 8.795 4.943 8.795 1.648 0 2.54-.945 2.883-1.817v1.6h3.845zM45 5.894c.824 1.236.824 4.143.824 6.47 0 2.47.137 5.596-.824 6.977-.343.509-.687.727-1.305.727-.823 0-1.304-.945-1.51-2.544-.137-1.454-.137-3.27-.137-5.234 0-3.27.206-6.977 1.716-6.977.687-.073.893.218 1.236.581zM83.496 5.028c1.03.582 1.716 1.6 1.716 3.78v12.139h-3.776V19.13c-.48 1.38-1.716 2.18-3.433 2.18-1.373 0-3.844-.726-3.844-4.506 0-3.562 2.197-4.289 4.6-5.38 2.197-1.017 2.402-1.162 2.402-2.107v-2.69c0-1.09-.549-1.599-1.716-1.599-.48.146-1.304.364-1.304.945-.138.727.686.727.823 1.818.138 1.744-1.167 2.325-2.334 2.18-.824 0-1.716-.509-1.854-1.817-.137-2.18 2.197-4.07 5.424-4.07 1.58.072 2.472.436 3.296.944zm-2.335 6.106l-1.235.872c-1.305.873-1.51 1.963-1.648 3.199-.137.944-.137 1.817 0 3.27.137 1.382.892 1.6 1.648 1.382.823-.364 1.304-1.963 1.304-3.635-.069-.073-.069-4.506-.069-5.088zM26.307 27.881c1.03.727 1.58 1.6 1.58 3.78v12.212h-3.64v-1.818c-.48 1.236-1.716 2.108-3.433 2.108-1.51 0-3.844-.581-3.844-4.434 0-3.561 2.197-4.288 4.531-5.379 2.266-1.09 2.472-1.235 2.472-2.035v-2.69c0-1.235-.55-1.744-1.717-1.599-.48 0-1.304.219-1.304.873-.138.872.686.872.824 1.962.137 1.6-1.167 2.181-2.335 2.181-.823-.145-1.716-.581-1.853-1.963-.069-2.108 2.265-3.925 5.492-3.925 1.51 0 2.403.218 3.227.727zm-2.334 6.106l-1.305.872c-1.236.872-1.441 1.963-1.579 3.198-.137.945-.137 1.963 0 3.271 0 1.454.824 1.745 1.51 1.381.893-.363 1.374-1.817 1.374-3.634v-5.088zM54.221 32.038c0-3.417-1.716-5.161-4.256-4.87-1.305.145-2.335.726-2.884 1.599v-4.798h-3.913v11.267c0 4.143-2.747 8.068-5.562 7.923-1.99 0-2.403-1.6-2.677-3.271-.343-2.472-.343-5.306-.069-8.36.206-1.962.687-3.561 2.06-3.561 1.03 0 1.167.727.686 1.236-.48.654-1.167 1.235-.823 2.617.343 1.453 2.54 1.744 3.57.581.824-.945.686-2.544.137-3.562-.687-1.235-1.854-1.744-3.57-1.744-2.197 0-6.385 2.108-6.385 8.65 0 7.123 4.257 8.286 6.728 8.286 2.747 0 5.218-2.544 5.905-4.652v4.434h3.913V31.456c0-1.236.206-1.962.824-2.544.48-.363 1.03-.509 1.373-.363.892.218.892 1.453.892 2.907v12.357h4.051V32.037zM13.808.73v6.978h-.824c-.686-3.416-2.197-6.033-4.256-6.106-1.373-.145-2.197.727-2.884 1.963-.686 1.454-1.03 4.507-1.03 8.214 0 3.416.138 5.96.481 7.85.206.872.824 2.18 2.334 2.18.824 0 1.373-.218 1.717-.726.549-.727.686-2.181.686-3.199v-3.27c0-1.164-.343-2.036-.961-2.4-.48-.217-1.167-.217-1.51-.363v-.872h6.453v17.518h-.824c-.343-1.381-.549-2.326-1.167-3.416-.549-1.09-1.579-2.326-3.295-2.326-1.854-.146-3.227 1.09-3.227 2.907 0 2.471 1.373 3.053 3.913 4.507 2.403 1.453 5.561 2.689 5.561 6.978 0 4.143-3.364 6.76-7.14 6.76h-6.11v-8.432h.824c1.03 6.396 3.57 7.487 5.286 7.487 2.197 0 3.227-1.454 3.227-3.562-.137-2.69-1.854-3.634-4.257-5.015-3.432-2.108-5.08-3.053-5.08-6.47.137-2.907 2.334-4.797 4.737-5.524-5.08-.581-6.59-5.524-6.454-10.758C.008 6.4 2.892.73 8.59.73h5.218z" fill="#000"/></svg>
