<svg width="100" height="19" fill="none" xmlns="http://www.w3.org/2000/svg"><g clip-path="url(#clip0_367_36556)" fill="#000"><path d="M98.707 15.296v-.277h.175c.092 0 .225.01.225.123s-.071.154-.184.154h-.216zm0 .195h.123l.277.482h.298l-.308-.503a.267.267 0 00.287-.256v-.041c0-.267-.184-.349-.492-.349h-.441v1.15h.256v-.483zm1.293-.092c0-.677-.523-1.067-1.108-1.067-.585 0-1.108.39-1.108 1.067 0 .677.523 1.067 1.108 1.067.585 0 1.108-.39 1.108-1.067zm-.328 0c.02.43-.318.8-.75.82h-.03a.824.824 0 01-.852-.79.824.824 0 01.79-.851.824.824 0 01.852.79c-.01.01-.01.02-.01.03zM59.322 4v12.107h3.416V4h-3.416zm-26.88-.02v12.116h3.447V6.688l2.688.01c.882 0 1.498.216 1.918.667.544.575.76 1.509.76 3.201v5.53h3.344V9.407c0-4.78-3.047-5.427-6.022-5.427H32.44zM64.83 4v12.107h5.54c2.955 0 3.92-.493 4.955-1.59.74-.77 1.211-2.473 1.211-4.33 0-1.703-.4-3.222-1.108-4.166-1.252-1.692-3.078-2.02-5.807-2.02h-4.791zm3.385 2.627h1.468c2.134 0 3.508.954 3.508 3.437 0 2.482-1.374 3.447-3.508 3.447h-1.468V6.627zM54.396 4l-2.851 9.593L48.815 4h-3.693l3.899 12.107h4.925L57.886 4h-3.49zm23.742 12.107h3.416V4h-3.416v12.107zM87.72 4l-4.77 12.096h3.364l.76-2.144h5.642l.719 2.134h3.662L92.286 4H87.72zm2.216 2.206l2.072 5.663h-4.206l2.134-5.663zM10.393 6.011V4.35c.164-.01.328-.02.492-.02 4.556-.144 7.541 3.919 7.541 3.919s-3.221 4.473-6.679 4.473c-.461 0-.913-.072-1.344-.216V7.458c1.775.215 2.134.995 3.19 2.77l2.37-1.99S14.23 5.97 11.317 5.97c-.308-.01-.615.01-.923.041zm0-5.5v2.484l.492-.031c6.33-.215 10.465 5.191 10.465 5.191s-4.74 5.766-9.675 5.766a7.51 7.51 0 01-1.272-.113v1.54c.349.04.708.071 1.057.071 4.596 0 7.92-2.35 11.142-5.12.533.431 2.719 1.468 3.17 1.92-3.057 2.564-10.188 4.626-14.23 4.626-.39 0-.76-.02-1.128-.061v2.164h17.461V.512H10.393zm0 11.994v1.314c-4.248-.76-5.427-5.181-5.427-5.181S7.007 6.38 10.393 6.01v1.436h-.01c-1.775-.215-3.17 1.447-3.17 1.447s.79 2.8 3.18 3.611zm-7.54-4.052s2.513-3.714 7.55-4.104V2.995C4.822 3.446 0 8.165 0 8.165s2.729 7.9 10.393 8.619v-1.437c-5.622-.697-7.54-6.894-7.54-6.894z"/></g><defs><clipPath id="clip0_367_36556"><path fill="#fff" transform="translate(0 .512)" d="M0 0h100v18.436H0z"/></clipPath></defs></svg>
