<svg width="100" height="21" fill="none" xmlns="http://www.w3.org/2000/svg"><path d="M73.854 3.96c-.466 0-.85-.159-1.183-.461a1.478 1.478 0 01-.483-1.13c0-.446.167-.827.5-1.13A1.69 1.69 0 0173.87.778c.45 0 .833.159 1.15.461.333.319.5.684.5 1.114 0 .43-.167.812-.484 1.13-.316.334-.716.477-1.183.477zM32.611 15.177L28.28.937h-5.883v.923h.567c.45 0 .8.032 1.033.111.4.127.667.414.783.875.067.207.084.653.084 1.32V15.4c0 1.05-.034 1.798-.1 2.228-.1.572-.317 1.002-.65 1.288a1.83 1.83 0 01-1.233.446h-.484v.939h6.283v-.94h-.4c-1.1 0-1.8-.508-2.1-1.51-.1-.367-.15-1.194-.15-2.451V2.687l5.35 17.614h.932l5.366-17.614v13.827a13.7 13.7 0 01-.083 1.607c-.034.35-.167.62-.367.811-.316.287-.85.446-1.616.446h-.25v.939h7.632v-.94h-.417c-1.05 0-1.683-.302-1.9-.89-.116-.318-.166-.97-.166-1.957V4.74c0-.653.033-1.194.083-1.623.034-.334.167-.605.367-.796.3-.302.85-.445 1.6-.445h.416V.937h-5.932l-4.433 14.24zm16.864-8.655c1.9 0 3.433.716 4.616 2.148 1.033 1.24 1.55 2.896 1.55 4.916 0 2.069-.517 3.723-1.55 4.98-1.166 1.432-2.733 2.148-4.7 2.148-1.849 0-3.365-.716-4.532-2.148-1.033-1.257-1.55-2.911-1.55-4.948 0-2.053.517-3.707 1.55-4.948 1.167-1.432 2.7-2.148 4.616-2.148zm0 13.254c2.133 0 3.2-2.069 3.2-6.222 0-1.909-.234-3.357-.7-4.36a3.16 3.16 0 00-1.267-1.415 2.384 2.384 0 00-1.233-.334c-.7 0-1.316.27-1.85.811-.9.891-1.35 2.625-1.35 5.203 0 2.132.284 3.755.834 4.853.483.986 1.266 1.463 2.366 1.463zM64.323 6.649c1.466 0 2.666.493 3.616 1.496 1.216 1.288 1.833 3.039 1.833 5.234 0 2.1-.55 3.835-1.633 5.25-1.017 1.322-2.367 1.974-4.033 1.974-.9 0-1.733-.239-2.483-.7-.167-.096-.5-.35-1.016-.748-.2-.16-.367-.223-.517-.223-.183 0-.383.143-.6.446-.2.27-.416.573-.633.923H57.84c.1-.27.15-.446.167-.494.083-.381.133-1.177.133-2.37V4.135c0-1.05-.116-1.702-.366-1.957-.2-.239-.6-.35-1.183-.35h-.217V.937l4.332-.19v8.082c.25-.557.584-.987 1-1.305.75-.589 1.617-.875 2.617-.875zm-.55 12.936c2.016 0 3.016-2.053 3.016-6.142 0-1.877-.25-3.325-.75-4.344-.483-.938-1.183-1.416-2.133-1.416-.666 0-1.283.239-1.866.732-1.067.939-1.6 2.625-1.6 5.076 0 1.893.25 3.357.75 4.391.266.541.65.987 1.166 1.305.433.254.9.398 1.417.398zM95 18.39c.383-.43.766-1.034 1.166-1.798l.9.462c-1.283 2.45-3 3.675-5.166 3.675-1.6 0-2.9-.525-3.932-1.56-1.267-1.288-1.9-3.165-1.9-5.616 0-2.243.633-4.057 1.9-5.41 1-1.065 2.2-1.606 3.616-1.606 2.083 0 3.666 1.002 4.716 3.007.566 1.066.883 2.402.933 3.993h-8.316c.017 1.878.217 3.262.617 4.153.55 1.273 1.5 1.91 2.85 1.91 1.033-.016 1.9-.414 2.616-1.21zm-5.766-8.353c-.2.668-.3 1.496-.317 2.45h5.483c0-1.177-.133-2.164-.4-2.927-.483-1.353-1.25-2.037-2.283-2.037-1.166.016-2 .86-2.483 2.514zm-5.782 9.021c-.25-.27-.367-.938-.367-2.004V.73L78.62.921v.891h.334c.566 0 .966.111 1.166.35.25.27.367.923.367 1.973V17.04c0 1.066-.117 1.718-.367 2.005-.217.238-.6.35-1.166.35h-.484v.89h6.65v-.89h-.484c-.567.016-.967-.112-1.183-.334zm-7.716 0c-.25-.27-.366-.938-.366-2.004V6.729l-4.466.19v.907h.35c.566 0 .966.112 1.183.335.25.27.367.922.367 1.973v6.905c0 1.066-.117 1.718-.367 2.005-.217.238-.6.35-1.183.35h-.483v.89h6.648v-.89h-.483c-.6.016-.983-.112-1.2-.334zM12.531 9.848v3.93h4.116v-3.93h-4.116zM.217.937l-.2 6.842 1.083.175c.2-2.021.75-3.517 1.666-4.487.95-1.018 2.266-1.56 3.95-1.591V16.18c0 1.257-.184 2.052-.567 2.434-.317.318-.867.51-1.65.589a17.75 17.75 0 01-1.166.032v1.097h10.015v-1.098c-.55 0-.95-.015-1.167-.031-.766-.08-1.316-.27-1.65-.589-.383-.382-.566-1.177-.566-2.434V1.876c1.683.047 3 .573 3.966 1.59.9.971 1.466 2.467 1.666 4.488l1.084-.175-.2-6.842H.217zm3.899 8.91H0v3.93h4.116v-3.93zm93.801-1.766V6.729h.45v-.207h-1.133v.207h.45V8.08h.233zm.867 0v-1.21l.383 1.21h.25l.366-1.225V8.08H100v-1.56h-.317l-.4 1.258-.4-1.257h-.316V8.08h.217z" fill="#000"/></svg>
