<svg width="100" height="39" fill="none" xmlns="http://www.w3.org/2000/svg"><path d="M90.728 31.556c-1.49-.11-3.097-.485-4.373-1.019-.288-.12-.492-1.219-.637-1.274l-.299-1.47c-.038-1.31-.087-2.758-.109-3.217l-.04-.835h1.07l.135 1.027c.507 3.834 2.533 5.763 6.048 5.763 2.335 0 3.782-.875 4.512-2.73.227-.578.262-.876.267-2.277.005-1.595.001-1.621-.371-2.382-.653-1.336-1.313-1.778-4.601-3.088-.975-.388-2.134-.887-2.575-1.11-2.871-1.447-4.293-3.5-4.288-6.188.008-3.44 1.922-5.923 5.261-6.821 1.162-.313 3.994-.279 5.206.063 1.136.32 2.64.915 2.798 1.108.068.082.146 1.056.181 2.262.034 1.164.08 2.389.103 2.721l.042.604h-1.082l-.237-1.211c-.554-2.822-1.853-4.31-4.09-4.682-1.81-.302-4.004.397-4.869 1.55-.657.877-.855 1.564-.855 2.963 0 1.111.027 1.262.34 1.882.406.806.983 1.333 2.063 1.885.757.386 3.311 1.411 3.519 1.411.2 0 2.496 1.145 3.09 1.54 1.65 1.102 2.568 2.58 2.896 4.66.16 1.017.167 1.355.05 2.297-.268 2.134-.89 3.456-2.203 4.68-1.682 1.57-3.732 2.126-6.952 1.888zM50.126 31.4c-3.642-.697-5.364-2.614-5.844-6.505-.074-.6-.12-4.212-.12-9.408V7.054h-2.746V6.02h9.039v1.029l-1.46.032-1.458.032-.033 7.48c-.044 9.734.066 11.301.914 13.034.837 1.709 2.453 2.56 4.861 2.56 2.731 0 4.254-1.021 5.075-3.404.526-1.524.566-2.33.567-11.297v-8.43h-2.746V6.019h6.636v1.036h-2.508l-.035 9.177c-.036 9.082-.039 9.188-.29 10.099-.745 2.691-2.217 4.199-4.775 4.89-1.195.323-3.84.416-5.077.18zm14.194-.662l.036-.494 1.373-.019 1.373-.018.029-11.573.03-11.572-1.403-.033-1.402-.032-.035-.49-.035-.488h5.62c3.553 0 5.921.047 6.441.128 1.987.309 3.344 1.186 4.074 2.634.629 1.248.823 2.811.529 4.272-.315 1.566-.964 2.532-2.266 3.37-.88.565-1.448.8-2.543 1.05-.504.115-.958.246-1.01.29-.052.044.257.116.686.16 4.42.449 6.355 2.397 6.355 6.394 0 2.2-.519 3.607-1.807 4.893-.79.789-1.748 1.313-3.099 1.693-.863.244-1.125.255-6.939.292l-6.042.038.035-.495zm10.425-.724c1.953-.511 3.26-1.865 3.694-3.827.273-1.234.18-3.496-.184-4.46-.442-1.171-1.187-2.11-2.096-2.637-.908-.528-1.566-.642-3.7-.642h-1.982v11.738h1.807c1.232 0 2.014-.055 2.461-.172zM74.74 17.14c1.892-.614 2.996-2.504 2.976-5.096-.02-2.704-1.386-4.65-3.48-4.957-.337-.049-1.32-.073-2.185-.054l-1.573.035v5.095c0 2.803.038 5.136.086 5.186.149.155 3.583-.017 4.176-.21v.001zM17.532 38.385c-.36-.105-.372-.127-.372-.729 0-.608-.007-.622-.372-.693-.68-.132-1.852-.67-2.4-1.102-2.017-1.59-2.708-4.075-1.8-6.472.581-1.533 2.183-2.903 3.916-3.349.837-.215.797-.457-.088-.53l-.686-.058V24.3l.715-.034.715-.035v-2.929c0-1.61-.024-2.929-.053-2.929-.03 0-.892.686-1.917 1.525a350.204 350.204 0 01-2.178 1.771c-.173.136-.313.292-.312.346 0 .054.176.305.39.559.376.447.382.47.204.773-.101.172-.326.363-.499.424-.289.101-.353.065-.77-.428-.327-.389-.49-.505-.58-.415-.092.09-.026.34.24.91.317.683.373.944.418 1.966.043.97.01 1.317-.187 1.966-.54 1.784-1.832 3.084-3.606 3.627-.645.198-.98.23-1.888.183-1.262-.067-1.99-.312-3.019-1.018-.36-.248-.695-.448-.743-.446-.048.003-.262.155-.476.34-.369.316-.407.325-.713.166-.316-.164-.672-.691-.672-.994 0-.082.19-.31.423-.506l.423-.357-.305-.708c-1.34-3.107.025-6.5 3.072-7.639.552-.206.9-.25 1.879-.24 1.414.016 2.108.233 3.288 1.029.934.63 1.165.525.538-.245-.424-.521-.43-.543-.252-.843.101-.169.323-.358.492-.42.283-.104.35-.067.782.43l.472.544 2.46-2.007c1.353-1.103 2.46-2.06 2.46-2.127 0-.066-1.081-.997-2.403-2.07l-2.402-1.95-.315.302c-.404.387-.397.614.029.93.419.312.421.368.04.822l-.301.362-.361-.353c-.432-.42-.48-.427-.764-.093-.463.545-.467.617-.043.908.219.15.398.33.398.4.001.15-.438.735-.55.734-.105 0-2.243-1.72-2.286-1.837-.018-.05.51-.391 1.173-.757.663-.365 1.206-.704 1.206-.753 0-.049-.149-.196-.33-.326l-.331-.237-1.115.636c-.613.349-1.134.616-1.157.593-.023-.023.133-.595.346-1.271l.388-1.23-.293-.231c-.16-.127-.341-.215-.401-.195-.06.02-.285.602-.5 1.292-.215.691-.411 1.277-.436 1.302-.046.046-2.35-1.813-2.35-1.897 0-.11.511-.727.602-.727.056 0 .282.139.503.308l.402.309.334-.36c.183-.198.334-.396.334-.44 0-.045-.191-.246-.424-.449L5.1 9.893l.281-.356c.344-.437.39-.442.816-.082.188.159.38.288.427.288.11 0 .698-.66.692-.776-.003-.048-.439-.424-.968-.835-1.07-.833-1.155-1.03-.681-1.596.594-.711.03-1.08 6.802 4.446 3.662 2.987 4.562 3.71 4.624 3.71.037 0 .067-1.321.067-2.935V8.822h-1.144v1.151h-1.03v-1.15h-1.144v1.15h-1.03V6.869l.544.216c.299.119.874.35 1.278.516.404.166.778.3.83.3.052 0 .094-.194.094-.431l-.001-.432-1.274-.505-1.274-.506 1.275-.513L15.558 5v-.449c0-.246-.024-.448-.054-.448s-.584.213-1.23.473l-1.318.53c-.11.044-.143-.302-.143-1.509V2.032h1.03v1.151h1.143v-1.15h1.03v1.15h1.144V.545l.441-.12c.311-.083.547-.081.801.008l.36.126v7.078c0 5.987.025 7.07.159 7.018.14-.054 3.265-2.575 8.653-6.981.977-.8 1.84-1.492 1.918-1.54.218-.136.568.022.808.365.475.68.451.742-.607 1.588-.537.43-.977.825-.977.878 0 .148.487.778.601.778.056 0 .283-.14.506-.311l.406-.311.324.397.324.398-.45.402-.451.403.357.393c.245.269.402.36.498.288.774-.578.738-.569 1.032-.268.15.153.287.337.307.41.039.146-2.188 2.015-2.31 1.94-.041-.027-.247-.62-.456-1.319-.21-.7-.437-1.27-.506-1.267-.069.002-.244.103-.39.226l-.265.222.395 1.27c.217.698.37 1.27.34 1.27-.031 0-.57-.29-1.199-.645l-1.142-.645-.333.32-.332.32.714.398c.393.219.963.538 1.268.71l.554.314-1.194.981-1.195.98-.32-.403-.32-.403.437-.37.437-.369-.32-.421c-.175-.232-.344-.422-.375-.422-.03 0-.25.155-.488.345l-.433.344-.31-.409-.31-.409.432-.376.433-.376-.333-.419c-.285-.359-.361-.399-.53-.279-.485.346-4.773 3.83-4.778 3.882-.004.033.29.292.651.576.362.284 1.496 1.202 2.52 2.04 1.026.84 1.885 1.526 1.91 1.526.026 0 .213-.233.416-.518.438-.613.677-.648 1.153-.17l.346.35-.3.37c-.39.48-.582.869-.48.971.044.045.146.032.227-.029.76-.578 1.682-1.108 2.17-1.247 2.824-.802 5.392.275 6.626 2.779l.486.987v1.447c0 1.495-.009 1.533-.696 3.063-.03.065.154.272.408.46.383.283.45.39.395.628-.072.31-.44.76-.769.937-.159.087-.305.023-.668-.289l-.464-.4-.522.4c-1.07.821-2.174 1.195-3.515 1.19-1.586-.005-2.735-.475-3.78-1.544-.811-.831-1.245-1.594-1.482-2.605-.303-1.293-.19-2.437.367-3.707.217-.494.26-.7.164-.796-.096-.097-.185-.058-.348.149-.7.892-.622.844-1.021.637-.199-.104-.418-.295-.488-.425-.13-.247-.102-.311.458-1.042l.232-.302-2.17-1.768c-1.195-.973-2.225-1.787-2.29-1.809-.08-.027-.109.904-.088 2.877l.03 2.916.684.035c.74.038.857.128.857.655 0 .528-.116.617-.857.655-.975.05-.905.285.18.6 1.443.418 2.47 1.176 3.287 2.423.988 1.507 1.095 3.671.268 5.384-.564 1.167-2.068 2.44-3.311 2.802-1.195.347-1.165.323-1.165.954 0 .532-.022.574-.36.693-.407.143-.37.143-.87-.002zm-.35-3.32c.032-.47.068-.524.407-.621.229-.065.516-.065.744 0 .343.098.376.15.43.678.052.529.078.57.342.542.557-.059 1.682-.714 2.223-1.296.84-.903 1.142-1.677 1.144-2.932.002-.57-.065-1.231-.148-1.47-.56-1.626-2.554-2.085-3.417-.786-.514.774-.23 1.97.566 2.384.35.182 1.197.18 1.606-.005.177-.08.2-.018.2.544 0 .608-.015.64-.36.76-.822.288-2.06.01-2.548-.574-.154-.184-.302-.335-.33-.335-.026 0-.228.17-.448.38-.638.604-1.582.801-2.508.522l-.442-.133v-.627c0-.558.022-.616.2-.53.11.054.519.099.908.1.63 0 .748-.038 1.061-.34.703-.678.702-1.824 0-2.485-1.06-.995-2.8-.172-3.202 1.516-.414 1.736.279 3.631 1.683 4.603.569.394 1.652.82 1.774.697.043-.043.095-.31.115-.592zm-9.11-4.946c1.223-.432 2.31-1.467 2.574-2.449.213-.798.046-1.447-.518-2.014-.436-.44-.546-.492-1.024-.492-.92 0-1.607.562-1.747 1.43-.096.595.316 1.37.877 1.65l.444.22-.47.364c-.26.2-.54.364-.625.364-.084 0-.38-.211-.66-.47-.626-.581-.919-1.29-.823-1.994l.07-.508-.566-.078c-.868-.12-1.723-.837-2.059-1.725-.109-.289-.08-.352.312-.701.238-.211.462-.386.5-.389.037-.002.127.196.2.44.178.599.896 1.11 1.56 1.11.902 0 1.661-.768 1.661-1.68 0-1-.844-1.716-2.017-1.714-2.12.003-3.955 2.487-3.579 4.84.13.804.38 1.488.548 1.488.06 0 .267-.132.458-.294.333-.282.36-.286.7-.11.193.102.44.368.546.593l.194.408-.427.393c-.235.217-.427.414-.427.438 0 .13 1.248.822 1.702.945.803.217 1.874.19 2.597-.065zm23.012-.171c.39-.177.802-.425.915-.551.2-.224.197-.238-.165-.542-.431-.362-.468-.66-.134-1.087.44-.562.646-.596 1.15-.19l.448.364.255-.555c.21-.456.254-.759.254-1.705 0-1.03-.034-1.22-.323-1.813-.485-.994-1.333-1.867-2.09-2.151-1.35-.508-2.503-.19-3.005.829-.356.722-.27 1.21.318 1.802.75.755 1.716.731 2.406-.06.192-.219.349-.527.349-.683 0-.367.087-.357.603.07.488.404.51.527.209 1.119-.384.752-1.185 1.29-1.972 1.32l-.46.02.072.487c.11.738-.135 1.392-.76 2.023-.298.301-.624.547-.725.547-.101 0-.388-.165-.637-.366l-.453-.367.317-.137c.556-.24.859-.677.921-1.331.072-.758-.196-1.299-.795-1.606-.885-.455-1.722-.21-2.222.648-.687 1.18-.03 2.783 1.517 3.695.811.478 1.382.616 2.383.577.703-.027 1.079-.11 1.624-.357z" fill="#000"/></svg>
