<svg width="368" height="120" viewBox="0 0 368 120" fill="none" xmlns="http://www.w3.org/2000/svg">
<g clip-path="url(#clip0_231_7750)">
<ellipse cx="234.704" cy="-69.5" rx="134.318" ry="131.5" fill="url(#paint0_radial_231_7750)"/>
<ellipse cx="-1.24643" cy="-124.5" rx="202.754" ry="198.5" fill="url(#paint1_radial_231_7750)"/>
<ellipse cx="357.275" cy="-34.5" rx="124.104" ry="121.5" fill="url(#paint2_radial_231_7750)"/>
<g filter="url(#filter0_b_231_7750)">
<path d="M0 4C0 1.79086 1.79086 0 4 0H364C366.209 0 368 1.79086 368 4V133H0V4Z" fill="white" fill-opacity="0.01"/>
</g>
<g clip-path="url(#clip1_231_7750)">
<path fill-rule="evenodd" clip-rule="evenodd" d="M281.789 42.2344C269.695 54.4689 269.681 74.1267 281.787 86.2333C293.891 98.3378 313.549 98.3222 325.783 86.2322L281.789 42.2344Z" fill="url(#paint3_linear_231_7750)" fill-opacity="0.6"/>
<path d="M304 85.1111C292.341 85.1111 282.889 75.6589 282.889 64C282.889 52.3411 292.341 42.8889 304 42.8889C315.66 42.8889 325.111 52.3411 325.111 64C325.111 75.6589 315.66 85.1111 304 85.1111Z" fill="#171321"/>
<path d="M304 85.1111C292.341 85.1111 282.889 75.6589 282.889 64C282.889 52.3411 292.341 42.8889 304 42.8889C315.66 42.8889 325.111 52.3411 325.111 64C325.111 75.6589 315.66 85.1111 304 85.1111Z" stroke="#7759C2" stroke-width="2"/>
<path d="M313.667 62.5889L310.933 55.5666C310.933 55.5666 310.8 55.3066 310.667 55.2411C310.532 55.1755 310.4 55.1111 310.267 55.1111C310.133 55.1111 309.999 55.1111 309.867 55.2411C309.733 55.3066 309.667 55.4366 309.6 55.6311L307.733 61.1589H300.267L298.4 55.6311C298.4 55.6311 298.267 55.3711 298.133 55.2422C298 55.1755 297.867 55.1111 297.733 55.1111C297.6 55.1111 297.4 55.1111 297.333 55.2411C297.2 55.3066 297.133 55.4366 297.067 55.5666L294.333 62.5244C293.535 64.67 294.2 67.0111 296 68.3122L300.133 71.3678L302.2 72.8633L303.467 73.7744C303.467 73.7744 304.2 73.9689 304.467 73.7744L305.733 72.8633L307.8 71.3689L312 68.3122C313.8 66.9455 314.466 64.6689 313.667 62.5889Z" fill="white"/>
<path d="M287.447 31.1056C287.534 31.1534 287.607 31.2239 287.658 31.3096C287.708 31.3954 287.735 31.4932 287.735 31.5928C287.735 31.6924 287.708 31.7902 287.658 31.8759C287.607 31.9617 287.534 32.0321 287.447 32.08L284.171 33.8722C284.078 33.9234 284.002 34.0001 283.951 34.0933L282.159 37.3689C282.111 37.4563 282.041 37.5292 281.955 37.5799C281.869 37.6307 281.771 37.6575 281.672 37.6575C281.572 37.6575 281.474 37.6307 281.389 37.5799C281.303 37.5292 281.232 37.4563 281.184 37.3689L279.393 34.0933C279.342 33.9994 279.265 33.9223 279.171 33.8711L275.897 32.08C275.809 32.0321 275.736 31.9617 275.686 31.8759C275.635 31.7902 275.608 31.6924 275.608 31.5928C275.608 31.4932 275.635 31.3954 275.686 31.3096C275.736 31.2239 275.809 31.1534 275.897 31.1056L279.172 29.3145C279.266 29.2634 279.342 29.1867 279.393 29.0933L281.184 25.8178C281.232 25.7304 281.303 25.6575 281.389 25.6067C281.474 25.556 281.572 25.5292 281.672 25.5292C281.771 25.5292 281.869 25.556 281.955 25.6067C282.041 25.6575 282.111 25.7304 282.159 25.8178L283.951 29.0933C284.002 29.1865 284.078 29.2633 284.171 29.3145L287.447 31.1056ZM274.628 39.9478C274.715 39.9957 274.788 40.0662 274.839 40.1519C274.89 40.2376 274.916 40.3354 274.916 40.435C274.916 40.5346 274.89 40.6324 274.839 40.7182C274.788 40.8039 274.715 40.8744 274.628 40.9222L273.148 41.7322C273.054 41.7832 272.978 41.86 272.927 41.9533L272.118 43.4333C272.07 43.5207 271.999 43.5936 271.914 43.6444C271.828 43.6952 271.73 43.722 271.631 43.722C271.531 43.722 271.433 43.6952 271.347 43.6444C271.262 43.5936 271.191 43.5207 271.143 43.4333L270.333 41.9533C270.282 41.8596 270.206 41.7824 270.112 41.7311L268.633 40.9222C268.546 40.8744 268.473 40.8039 268.422 40.7182C268.372 40.6324 268.345 40.5346 268.345 40.435C268.345 40.3354 268.372 40.2376 268.422 40.1519C268.473 40.0662 268.546 39.9957 268.633 39.9478L270.113 39.1389C270.207 39.0876 270.284 39.0104 270.334 38.9167L271.144 37.4378C271.192 37.3504 271.263 37.2775 271.349 37.2267C271.434 37.176 271.532 37.1492 271.632 37.1492C271.731 37.1492 271.829 37.176 271.915 37.2267C272.001 37.2775 272.071 37.3504 272.119 37.4378L272.928 38.9178C272.979 39.0113 273.056 39.0881 273.15 39.1389L274.629 39.9478H274.628Z" fill="#6FDAC9"/>
<path d="M274.628 86.29C274.715 86.3378 274.789 86.4083 274.84 86.4941C274.891 86.58 274.917 86.678 274.917 86.7778C274.917 86.8776 274.891 86.9756 274.84 87.0614C274.789 87.1473 274.715 87.2178 274.628 87.2656L273.148 88.0744C273.055 88.1256 272.979 88.2024 272.928 88.2956L272.118 89.7756C272.07 89.8629 271.999 89.9358 271.914 89.9866C271.828 90.0374 271.73 90.0642 271.631 90.0642C271.531 90.0642 271.433 90.0374 271.347 89.9866C271.262 89.9358 271.191 89.8629 271.143 89.7756L270.333 88.2956C270.283 88.2024 270.206 88.1256 270.113 88.0744L268.633 87.2667C268.546 87.2189 268.473 87.1484 268.422 87.0625C268.371 86.9767 268.344 86.8787 268.344 86.7789C268.344 86.6791 268.371 86.5811 268.422 86.4952C268.473 86.4094 268.546 86.3389 268.633 86.2911L270.113 85.4822C270.206 85.431 270.283 85.3543 270.333 85.2611L271.143 83.7811C271.191 83.6937 271.262 83.6208 271.347 83.5701C271.433 83.5193 271.531 83.4925 271.631 83.4925C271.73 83.4925 271.828 83.5193 271.914 83.5701C271.999 83.6208 272.07 83.6937 272.118 83.7811L272.928 85.2611C272.979 85.3543 273.055 85.431 273.148 85.4822L274.628 86.29Z" fill="#D0C5E2"/>
<path opacity="0.7" fill-rule="evenodd" clip-rule="evenodd" d="M302.855 24.0156L303.042 30.68C303.681 30.6621 304.319 30.6621 304.958 30.68L305.145 24.0156C304.382 23.9941 303.619 23.9941 302.855 24.0156ZM308.562 24.2578L307.81 30.8811C308.443 30.9533 309.072 31.0433 309.695 31.15L310.824 24.58C310.074 24.451 309.319 24.3436 308.562 24.2578ZM314.172 25.3044L312.481 31.7533C313.094 31.9143 313.703 32.0929 314.305 32.2889L316.365 25.9478C315.641 25.7123 314.909 25.4978 314.172 25.3044ZM319.574 27.1456L316.977 33.2856C317.562 33.5322 318.139 33.7967 318.707 34.0767L321.652 28.0956C320.969 27.7591 320.276 27.4423 319.574 27.1456ZM324.659 29.7411L321.21 35.4467C321.754 35.7756 322.288 36.1189 322.811 36.4778L326.58 30.9778C325.951 30.5474 325.311 30.135 324.659 29.7411ZM329.321 33.0333L325.099 38.1922C325.59 38.5944 326.07 39.0111 326.538 39.44L331.047 34.53C330.486 34.0149 329.91 33.5158 329.321 33.0333ZM333.47 36.9533L328.559 41.4622C328.989 41.93 329.405 42.41 329.808 42.9022L334.967 38.68C334.484 38.0904 333.985 37.5146 333.47 36.9533ZM337.022 41.42L331.522 45.1889C331.881 45.7111 332.224 46.2456 332.553 46.7889L338.26 43.3411C337.866 42.6891 337.453 42.0485 337.022 41.42ZM339.904 46.3478L333.923 49.2933C334.203 49.8611 334.468 50.4378 334.714 51.0233L340.854 48.4256C340.558 47.724 340.241 47.0311 339.904 46.3478ZM342.052 51.6356L335.711 53.6944C335.907 54.2944 336.085 54.9033 336.247 55.5189L342.695 53.8278C342.502 53.091 342.288 52.36 342.052 51.6356ZM343.42 57.1756L336.85 58.3056C336.957 58.9278 337.047 59.5556 337.119 60.19L343.742 59.4378C343.656 58.6808 343.549 57.9264 343.42 57.1756ZM343.984 62.8544C344.005 63.5839 344.006 64.3138 343.987 65.0433L337.322 64.8722C337.338 64.2623 337.337 63.6521 337.32 63.0422L343.984 62.8544ZM343.785 68.1633L337.154 67.4778C337.095 68.0537 337.02 68.628 336.931 69.2L343.518 70.2311C343.624 69.5467 343.714 68.8578 343.785 68.1633ZM342.913 73.2989L336.428 71.7544C336.294 72.3171 336.145 72.8762 335.982 73.4311L342.378 75.3133C342.573 74.6489 342.752 73.9767 342.913 73.2989ZM341.378 78.2756L335.15 75.8956C334.944 76.4361 334.723 76.9711 334.489 77.5L340.582 80.2022C340.863 79.5689 341.129 78.9267 341.378 78.2756ZM339.203 83.0089L333.34 79.8367C333.064 80.3456 332.775 80.8478 332.473 81.3422L338.163 84.8156C338.525 84.2233 338.872 83.6211 339.203 83.0089ZM336.431 87.4189L331.03 83.5111C330.69 83.9811 330.338 84.4422 329.974 84.8933L335.165 89.0756C335.601 88.5345 336.022 87.9822 336.431 87.4189ZM333.111 91.4322L328.26 86.86C327.86 87.2839 327.45 87.6974 327.029 88.1L331.635 92.9189C332.14 92.4363 332.632 91.9405 333.111 91.4322ZM329.27 95.0078L325.055 89.8422C324.602 90.2122 324.14 90.57 323.667 90.9156L327.605 96.2956C328.172 95.88 328.728 95.4511 329.27 95.0078ZM324.989 98.0578L321.485 92.3856C320.989 92.6922 320.483 92.9856 319.97 93.2678L323.17 99.1156C323.785 98.7789 324.392 98.4267 324.989 98.0578ZM320.344 100.52L317.617 94.4356C317.085 94.6744 316.547 94.8989 316 95.11L318.401 101.329C319.057 101.076 319.707 100.807 320.344 100.52ZM315.414 102.348L313.515 95.9567C312.958 96.1233 312.393 96.2744 311.824 96.4122L313.383 102.893C314.065 102.729 314.742 102.547 315.414 102.348ZM310.288 103.509L309.248 96.9233C308.673 97.0144 308.093 97.09 307.509 97.1511L308.201 103.782C308.899 103.709 309.595 103.618 310.288 103.509ZM305.052 103.987L304.88 97.3222C304.267 97.338 303.655 97.3373 303.042 97.32L302.854 103.984C303.587 104.005 304.32 104.006 305.052 103.987ZM299.438 103.742L300.19 97.1189C299.559 97.0472 298.931 96.9575 298.305 96.85L297.175 103.42C297.926 103.549 298.681 103.656 299.438 103.742ZM293.828 102.696L295.519 96.2467C294.906 96.0857 294.297 95.9071 293.694 95.7111L291.634 102.052C292.357 102.287 293.089 102.501 293.828 102.696ZM288.425 100.854L291.023 94.7145C290.439 94.4674 289.862 94.2036 289.293 93.9233L286.348 99.9045C287.031 100.241 287.724 100.558 288.425 100.854ZM283.341 98.26L286.79 92.5533C286.245 92.2245 285.712 91.8811 285.189 91.5222L281.42 97.0222C282.049 97.4522 282.689 97.8644 283.342 98.26H283.341Z" fill="#6FDAC9"/>
</g>
</g>
<defs>
<filter id="filter0_b_231_7750" x="-50" y="-50" width="468" height="233" filterUnits="userSpaceOnUse" color-interpolation-filters="sRGB">
<feFlood flood-opacity="0" result="BackgroundImageFix"/>
<feGaussianBlur in="BackgroundImageFix" stdDeviation="25"/>
<feComposite in2="SourceAlpha" operator="in" result="effect1_backgroundBlur_231_7750"/>
<feBlend mode="normal" in="SourceGraphic" in2="effect1_backgroundBlur_231_7750" result="shape"/>
</filter>
<radialGradient id="paint0_radial_231_7750" cx="0" cy="0" r="1" gradientUnits="userSpaceOnUse" gradientTransform="translate(234.704 -69.5) rotate(89.5728) scale(125.986 128.685)">
<stop stop-color="#7759C2"/>
<stop offset="1" stop-color="#7759C2" stop-opacity="0"/>
</radialGradient>
<radialGradient id="paint1_radial_231_7750" cx="0" cy="0" r="1" gradientUnits="userSpaceOnUse" gradientTransform="translate(-1.24645 -124.5) rotate(89.5728) scale(190.177 194.251)">
<stop stop-color="#D64028"/>
<stop offset="1" stop-color="#D64028" stop-opacity="0"/>
</radialGradient>
<radialGradient id="paint2_radial_231_7750" cx="0" cy="0" r="1" gradientUnits="userSpaceOnUse" gradientTransform="translate(357.275 -34.5) rotate(89.5728) scale(116.405 118.899)">
<stop stop-color="#EF76F1"/>
<stop offset="1" stop-color="#EF76F1" stop-opacity="0"/>
</radialGradient>
<linearGradient id="paint3_linear_231_7750" x1="374.363" y1="128.927" x2="268.061" y2="41.8744" gradientUnits="userSpaceOnUse">
<stop stop-color="#7759BF" stop-opacity="0"/>
<stop offset="0.5" stop-color="#7759BF" stop-opacity="0"/>
<stop offset="1" stop-color="#7759BF"/>
</linearGradient>
<clipPath id="clip0_231_7750">
<path d="M0 4C0 1.79086 1.79086 0 4 0H364C366.209 0 368 1.79086 368 4V120H0V4Z" fill="white"/>
</clipPath>
<clipPath id="clip1_231_7750">
<rect width="80" height="80" fill="white" transform="translate(264 24)"/>
</clipPath>
</defs>
</svg>
